<?xml version="1.0" encoding="UTF-8"?>
<svg id="Livello_1" data-name="Livello 1" xmlns="http://www.w3.org/2000/svg" viewBox="0 0 1074.56 1200.21">
  <defs>
    <style>
      .cls-1 {
        fill: #efefef;
      }
    </style>
  </defs>
  <polygon class="cls-1" points="668.01 96.21 406.1 96.21 411.5 91.24 411.66 91.14 534.38 1.92 537.06 0 662.45 91.14 662.61 91.24 668.01 96.21"/>
  <rect class="cls-1" x="406.29" y="1061.21" width="262" height="69" rx="3.61" ry="3.61"/>
  <rect class="cls-1" x="465.29" y="1157.21" width="144" height="43" rx=".38" ry=".38"/>
  <path class="cls-1" d="M1068.7,385.62c4.98,3.62,7.06,10.02,5.16,15.87l-56.17,172.86-47.91,147.38-95.74,294.67c-1.9,5.85-7.35,9.81-13.5,9.81h-177.96c-7.28,0-13.38-5.5-14.12-12.74h0c-.05-1.06-.11-2.1-.16-3.15v-50.9c0-.53,.03-1.07,.08-1.59,4.84-47.33,22.07-90.99,48.46-127.64,.37-.51,.77-.99,1.2-1.44,7.83-8.31,15.1-17.17,21.87-26.48,33.31-46.04,53.1-103.79,53.1-166.41,0-21.12-2.25-41.71-6.52-61.5-15.83-73.26-59.36-135.24-118.18-172.72-38.29-24.44-83.15-38.5-131.01-38.5-.91,0-1.82,0-2.67,.05-46.9,.48-90.75,14.44-128.34,38.45-58.82,37.49-102.35,99.46-118.18,172.72-4.28,19.79-6.52,40.37-6.52,61.5,0,66.63,22.41,127.7,59.62,175.07,.05,.05,.11,.16,.21,.21,2.57,2.99,5.08,6.04,7.54,9.14,.21,.27,.37,.48,.59,.7,35.51,45.24,56.74,102.3,56.74,164.27,0,9.5-.5,18.9-1.46,28.16-.76,7.26-6.84,12.8-14.14,12.8H214.02c-6.15,0-11.6-3.96-13.5-9.81l-95.79-294.83-47.86-147.21L.7,401.5c-1.9-5.85,.18-12.26,5.16-15.87L338.53,143.93c2.43-1.76,5.35-2.71,8.34-2.71h380.82c3,0,5.92,.95,8.34,2.71l332.67,241.7Z"/>
  <path class="cls-1" d="M654.04,696.03l-112.78,164.05c-1.21,1.76-3.97,.9-3.97-1.23v-136.42c0-.58,.23-1.13,.64-1.54l45.93-45.93c.85-.85,.85-2.23,0-3.08l-45.93-45.93c-.41-.41-.64-.96-.64-1.54v-93.66c0-2.14,2.76-2.99,3.97-1.23l30.94,45.01,81.84,119.04c.51,.74,.51,1.72,0,2.46Z"/>
</svg>